<?xml version="1.0" encoding="UTF-8" standalone="no"?>
<svg
   enable-background="new 0 0 24 24"
   height="24px"
   viewBox="0 0 24 24"
   width="24px"
   fill="#FFFFFF"
   version="1.1"
   id="svg14"
   sodipodi:docname="logo.svg"
   inkscape:version="1.1 (c4e8f9ed74, 2021-05-24)"
   xmlns:inkscape="http://www.inkscape.org/namespaces/inkscape"
   xmlns:sodipodi="http://sodipodi.sourceforge.net/DTD/sodipodi-0.dtd"
   xmlns="http://www.w3.org/2000/svg"
   xmlns:svg="http://www.w3.org/2000/svg">
  <defs
     id="defs18" />
  <sodipodi:namedview
     id="namedview16"
     pagecolor="#000000"
     bordercolor="#666666"
     borderopacity="1.0"
     inkscape:pageshadow="2"
     inkscape:pageopacity="0"
     inkscape:pagecheckerboard="0"
     showgrid="false"
     inkscape:snap-to-guides="true"
     inkscape:zoom="20.844919"
     inkscape:cx="10.194331"
     inkscape:cy="7.9875581"
     inkscape:window-width="1600"
     inkscape:window-height="841"
     inkscape:window-x="0"
     inkscape:window-y="33"
     inkscape:window-maximized="1"
     inkscape:current-layer="layer4" />
  <g
     id="g4">
    <rect
       fill="none"
       height="24"
       width="24"
       y="0"
       id="rect2" />
  </g>
  <g
     inkscape:groupmode="layer"
     id="layer3"
     inkscape:label="Layer 2">
    <circle
       style="fill:#29a9eb;fill-opacity:1"
       id="path3895"
       cx="12"
       cy="12"
       r="12" />
  </g>
  <g
     inkscape:groupmode="layer"
     id="layer4"
     inkscape:label="Layer 3"
     style="display:inline">
    <g
       id="g4891"
       transform="matrix(0.8040201,0,0,0.8,2.3517588,2.4)">
      <path
         d="M 19.05,4.91 C 17.18,3.03 14.69,2 12.04,2 6.58,2 2.13,6.45 2.13,11.91 c 0,1.75 0.46,3.45 1.32,4.95 L 2.05,22 7.3,20.62 c 1.45,0.79 3.08,1.21 4.74,1.21 v 0 0 c 5.46,0 9.91,-4.45 9.91,-9.91 0,-2.65 -1.03,-5.14 -2.9,-7.01 z m -7.01,15.24 v 0 c -1.48,0 -2.93,-0.4 -4.2,-1.15 L 7.54,18.82 4.42,19.64 5.25,16.6 5.05,16.29 C 4.23,14.98 3.79,13.46 3.79,11.91 c 0,-4.54 3.7,-8.24 8.24,-8.24 2.2,0 4.27,0.86 5.82,2.42 1.56,1.56 2.41,3.63 2.41,5.83 0.02,4.54 -3.68,8.23 -8.22,8.23 z"
         id="path6"
         sodipodi:nodetypes="csscccscsscsscccccssccs" />
      <path
         style="fill:#ffffff;stroke-width:0.0363636"
         d="m 14.147205,16.737685 c -0.227719,-0.05365 -0.372712,-0.143207 -1.90999,-1.17973 -1.638437,-1.10473 -1.83962,-1.25161 -1.960784,-1.431536 -0.222677,-0.330669 -0.163084,-0.404619 1.825884,-2.265798 0.46,-0.430445 1.004091,-0.955635 1.209091,-1.167087 0.309048,-0.318775 0.372727,-0.403619 0.372727,-0.496605 0,-0.08441 -0.02254,-0.122417 -0.09115,-0.153676 -0.0778,-0.03545 -0.121745,-0.02572 -0.3,0.06641 -0.114869,0.05937 -1.167669,0.747133 -2.339555,1.52837 C 8.5423895,13.245348 8.5571375,13.237491 8.0151605,13.203436 7.6159875,13.178356 6.6424255,12.9167 5.9056785,12.636492 5.4144325,12.449655 5.3720595,12.145608 5.8021665,11.89375 6.0465205,11.750664 11.076559,9.57907 12.938676,8.812741 15.271248,7.8528016 15.740967,7.7164 16.084698,7.8991677 c 0.206859,0.1099909 0.242167,0.2669978 0.186421,0.8289733 -0.100359,1.011727 -0.644847,4.487632 -1.018775,6.503655 -0.154966,0.835499 -0.245166,1.121976 -0.413703,1.313929 -0.195186,0.222305 -0.363869,0.269135 -0.691439,0.19196 z"
         id="path3256" />
    </g>
  </g>
  <g
     id="g12">
    <g
       inkscape:groupmode="layer"
       id="layer2"
       inkscape:label="Layer 1" />
    <g
       style="fill:#ffffff"
       id="g2884"
       transform="translate(-16.784962,-13.403719)">
      <g
         id="g2868">
        <rect
           fill="none"
           height="24"
           width="24"
           y="0"
           id="rect2866"
           x="0" />
      </g>
      <g
         id="g2872" />
    </g>
    <g
       id="g3400">
      <g
         id="g10">
        <g
           id="g8" />
      </g>
    </g>
  </g>
</svg>
